<?xml version="1.0" encoding="iso-8859-1"?>
<!-- Generator: Adobe Illustrator 19.0.0, SVG Export Plug-In . SVG Version: 6.00 Build 0)  -->
<svg xmlns="http://www.w3.org/2000/svg" xmlns:xlink="http://www.w3.org/1999/xlink" version="1.1" id="Layer_1" x="0px" y="0px" viewBox="0 0 512 512" style="enable-background:new 0 0 512 512;" xml:space="preserve">
<g>
	<path style="fill:#EAEAE9;" d="M256,463.308c114.31,0,207.307-92.998,207.307-207.308S370.31,48.692,256,48.692   C141.689,48.692,48.692,141.689,48.692,256S141.689,463.308,256,463.308z M201.369,157.236l161.262,100.596   c1.747,1.092,2.791,2.972,2.791,5.031s-1.043,3.939-2.791,5.029L201.369,368.488c-1.794,1.118-4.167,1.18-6.014,0.154   c-1.883-1.044-3.053-3.032-3.053-5.185V162.265c0-2.153,1.17-4.14,3.052-5.185c0.878-0.487,1.873-0.744,2.877-0.744   C199.342,156.337,200.427,156.647,201.369,157.236z"/>
	<path style="fill:#EAEAE9;" d="M256,470.853C137.53,470.853,41.146,374.47,41.146,256S137.53,41.146,256,41.146   S470.852,137.53,470.852,256S374.47,470.853,256,470.853z M256,56.237C145.851,56.237,56.237,145.851,56.237,256   c0,110.15,89.614,199.763,199.763,199.763S455.762,366.149,455.762,256S366.149,56.237,256,56.237z M198.224,376.917   c-2.298,0-4.558-0.581-6.535-1.68c-4.273-2.369-6.932-6.885-6.932-11.779V162.265c0-4.894,2.658-9.409,6.936-11.782   c4.209-2.333,9.6-2.191,13.673,0.354l161.258,100.592c3.973,2.482,6.342,6.755,6.342,11.432c0,4.68-2.37,8.953-6.341,11.431   L205.363,374.89C203.235,376.216,200.768,376.917,198.224,376.917z M199.848,165.18v195.364l156.59-97.682L199.848,165.18z"/>
</g>
<g>
	<polygon style="fill:#E84934;" points="196.614,366.372 362.548,262.862 196.614,159.352  "/>
	<path style="fill:#E84934;" d="M256,6.467C118.408,6.467,6.467,118.408,6.467,256S118.408,505.533,256,505.533   S505.533,393.592,505.533,256S393.592,6.467,256,6.467z M256,467.62c-116.687,0-211.62-94.932-211.62-211.62   S139.313,44.38,256,44.38S467.619,139.313,467.619,256S372.687,467.62,256,467.62z"/>
</g>
<g style="opacity:0.1;">
	<path d="M26.78,256c0-134.189,106.476-243.96,239.377-249.308c-3.371-0.136-6.754-0.224-10.157-0.224   C118.408,6.467,6.467,118.408,6.467,256S118.408,505.533,256,505.533c3.403,0,6.786-0.088,10.157-0.224   C133.256,499.96,26.78,390.189,26.78,256z"/>
</g>
<path d="M198.231,371.542c-1.35,0-2.7-0.337-3.922-1.014c-2.569-1.425-4.162-4.132-4.162-7.07V162.265  c0-2.938,1.594-5.644,4.162-7.07c2.57-1.424,5.707-1.345,8.201,0.21l161.262,100.597c2.366,1.477,3.805,4.069,3.805,6.859  c0,2.79-1.439,5.382-3.805,6.859L202.509,370.315C201.203,371.133,199.719,371.542,198.231,371.542z M206.316,176.837v172.049  l137.903-86.025L206.316,176.837z"/>
<path d="M256,512c-68.381,0-132.667-26.628-181.019-74.982C26.628,388.667,0,324.381,0,256S26.628,123.333,74.982,74.982  C123.333,26.628,187.619,0,256,0s132.667,26.628,181.019,74.982C485.372,123.333,512,187.619,512,256  s-26.628,132.667-74.982,181.019C388.667,485.372,324.381,512,256,512z M256,16.168C123.756,16.168,16.168,123.756,16.168,256  S123.756,495.832,256,495.832S495.832,388.243,495.832,256S388.243,16.168,256,16.168z"/>
<path d="M256,477.321c-31.249,0-61.46-6.384-89.793-18.976c-27.367-12.161-51.637-29.48-72.139-51.476  c-3.044-3.265-2.864-8.381,0.402-11.426c3.265-3.043,8.382-2.862,11.426,0.401c38.686,41.504,93.395,65.307,150.104,65.307  c113.121,0,205.151-92.032,205.151-205.152S369.121,50.848,256,50.848S50.848,142.879,50.848,256  c0,43.456,13.413,84.978,38.791,120.074c2.616,3.617,1.803,8.672-1.815,11.289c-3.616,2.615-8.672,1.804-11.289-1.815  C49.153,347.678,34.679,302.88,34.679,256c0-122.037,99.284-221.321,221.321-221.321c122.036,0,221.32,99.284,221.32,221.321  S378.036,477.321,256,477.321z"/>
<g>
</g>
<g>
</g>
<g>
</g>
<g>
</g>
<g>
</g>
<g>
</g>
<g>
</g>
<g>
</g>
<g>
</g>
<g>
</g>
<g>
</g>
<g>
</g>
<g>
</g>
<g>
</g>
<g>
</g>
</svg>
